# This file uses centimeters as units for non-parametric coordinates.

mtllib fish_bait.mtl
g default
v 1.946889 -2.993956 0.034296
v 1.853691 -3.110147 -0.057854
v 1.590142 -2.445741 -0.346029
v 1.874101 -2.321372 -0.164644
v 1.706188 -3.089435 0.034296
v 1.298141 -2.549838 -0.164644
v 1.737522 -3.313876 0.272795
v 1.161033 -2.610908 0.322180
v 1.657431 -3.031547 0.622618
v 1.303529 -2.523242 0.852287
v 1.851601 -3.104878 0.733004
v 1.581730 -2.424534 1.036619
v 1.942708 -2.918386 0.622618
v 1.851947 -2.305701 0.852287
v 2.077926 -3.178848 0.272795
v 2.015791 -2.271852 0.322180
v 1.982655 -3.435264 0.276808
v 1.237068 -0.595409 0.919888
v 1.377523 -0.551753 0.352654
v 0.929484 0.292766 0.333778
v 0.818576 0.258093 0.772299
v 0.906057 -0.721168 1.180685
v 0.556841 0.159202 1.004272
v 0.578846 -0.856506 0.919888
v 0.298487 0.051791 0.772299
v 0.446656 -0.920999 0.352654
v 0.193967 0.001009 0.333778
v 0.586244 -0.875158 -0.217030
v 0.303113 0.040128 -0.109512
v 1.244467 -0.614062 -0.217030
v 0.823202 0.246431 -0.109512
v 0.022767 1.715508 0.301142
v 0.002612 1.704839 0.175253
v -0.250417 2.194295 0.290359
v 0.000778 1.709462 0.427032
v -0.050474 1.690240 0.479179
v -0.498439 2.819556 1.587852
v -0.100967 1.669103 0.427032
v -0.099133 1.664479 0.175253
v -0.505893 2.838347 -1.001093
v -0.047881 1.683702 0.123106
v -0.121122 1.658433 0.301142
v 0.371752 1.056773 0.557076
v 0.434693 1.076610 0.315657
v 0.223124 1.000501 0.683363
v 0.076336 0.939591 0.557076
v 0.016912 0.910888 0.315657
v 0.078931 0.933047 0.071741
v 0.227559 0.989320 -0.054546
v 0.374348 1.050229 0.071741
v 1.784782 -1.508302 0.338541
v 1.641361 -1.580725 -0.256632
v 1.627019 -1.562274 0.945803
v 1.290611 -1.690625 1.185329
v 0.957693 -1.827775 0.945799
v 0.805830 -1.896620 0.338541
v 0.959898 -1.851040 -0.256632
v 1.313627 -1.748650 -0.459911
v 0.561498 0.147462 -0.272987
v 0.917547 -0.750133 -0.440359
v 0.557666 0.147163 -0.215769
v 0.913740 -0.750410 -0.383144
v 0.921527 -0.770127 -0.800512
v 0.615839 0.000509 -0.435905
v 1.155495 -1.359959 -1.165420
v 1.246541 -1.589485 -0.814835
v 1.309716 -1.748748 -0.391256
v 1.346144 -1.214824 1.136248
v 1.661615 -1.613310 1.338732
v 1.491481 -1.796900 0.954550
v 1.604331 -1.300029 1.662518
v 0.804903 0.368300 1.029478
v 0.831592 -0.197505 0.898746
v 0.675207 0.412421 0.815607
v 0.895801 0.149127 1.139664
v 0.835907 0.572980 1.362673
v 0.917238 -1.384957 1.136248
v 0.960701 -1.891341 1.338732
v 1.210421 -1.908387 0.954550
v 0.787661 -1.623977 1.662518
v 0.226110 0.138711 1.029478
v 0.594527 -0.291541 0.898746
v 0.290297 0.259740 0.815607
v 0.310167 -0.083176 1.139664
v 0.063233 0.266483 1.362673
v 1.876855 -1.911344 0.352757
v 1.697651 -1.667726 0.653902
v 1.689503 -1.324881 0.578133
v 1.880045 -1.492988 0.328751
v 1.810446 -0.829911 0.487501
v 1.854764 -1.116943 0.366779
v 1.008283 -2.255879 0.352757
v 0.971765 -1.955663 0.653902
v 0.742684 -1.700455 0.578133
v 0.719187 -1.953465 0.328751
v 0.315335 -1.422976 0.487501
v 0.479822 -1.662340 0.366779
vt 0.298021 0.089902
vt 0.318803 0.087414
vt 0.319094 0.177619
vt 0.278213 0.173763
vt 0.339600 0.089767
vt 0.359950 0.173499
vt 0.352615 0.050168
vt 0.418151 0.154593
vt 0.419932 0.055817
vt 0.488566 0.132977
vt 0.424526 0.022706
vt 0.531734 0.108560
vt 0.212663 0.023391
vt 0.217471 0.056472
vt 0.149338 0.134074
vt 0.106013 0.109937
vt 0.284750 0.050387
vt 0.219891 0.155234
vt 0.318601 0.025105
vt 0.111530 0.394154
vt 0.192080 0.388167
vt 0.214004 0.514400
vt 0.150864 0.529096
vt 0.047700 0.401009
vt 0.100737 0.546530
vt 0.528055 0.392809
vt 0.591928 0.399251
vt 0.539832 0.545114
vt 0.489593 0.528004
vt 0.447467 0.387343
vt 0.426359 0.513716
vt 0.372463 0.382732
vt 0.364122 0.503132
vt 0.267053 0.383072
vt 0.276171 0.503416
vt 0.290763 0.744321
vt 0.310159 0.746982
vt 0.256406 0.808268
vt 0.271046 0.743415
vt 0.260914 0.740465
vt 0.068026 0.842562
vt 0.370792 0.743081
vt 0.380919 0.740054
vt 0.574486 0.840854
vt 0.385868 0.807841
vt 0.331704 0.746879
vt 0.321725 0.987940
vt 0.320960 0.749501
vt 0.351050 0.744181
vt 0.221018 0.649458
vt 0.255027 0.640002
vt 0.194783 0.662581
vt 0.420213 0.648813
vt 0.446533 0.661770
vt 0.386146 0.639577
vt 0.350838 0.632855
vt 0.320554 0.629265
vt 0.290290 0.633052
vt 0.196247 0.254427
vt 0.270433 0.261631
vt 0.112597 0.243471
vt 0.050647 0.234159
vt 0.526014 0.242134
vt 0.587903 0.232422
vt 0.442436 0.253631
vt 0.368298 0.261315
vt 0.319361 0.259925
vt 0.320138 0.500601
vt 0.319751 0.380549
vt 0.490126 0.632311
vt 0.618337 0.622858
vt 0.634327 0.675295
vt 0.517214 0.655300
vt 0.726697 0.701524
vt 0.746955 0.649046
vt 0.755269 0.589687
vt 0.684203 0.414901
vt 0.758488 0.411074
vt 0.740378 0.475887
vt 0.739810 0.353889
vt 0.644895 0.239539
vt 0.724765 0.245827
vt 0.646241 0.275632
vt 0.670671 0.216875
vt 0.607880 0.201167
vt 0.602539 0.413985
vt 0.676897 0.415952
vt 0.653796 0.479159
vt 0.662726 0.357487
vt 0.640709 0.310044
vt 0.720588 0.316235
vt 0.642097 0.346132
vt 0.666457 0.287350
vt 0.603649 0.271715
vt 0.543453 0.604570
vt 0.562607 0.551080
vt 0.611224 0.551308
vt 0.601989 0.599501
vt 0.688450 0.565077
vt 0.652293 0.586553
vt 0.567664 0.533257
vt 0.594639 0.483252
vt 0.642670 0.490784
vt 0.626296 0.537042
vt 0.716949 0.516010
vt 0.677974 0.531805
vn 0.806391 -0.112657 -0.580554
vn 0.199914 -0.503988 -0.840256
vn 0.104333 -0.263026 -0.959131
vn 0.799708 0.068325 -0.596489
vn 0.199914 -0.503988 -0.840256
vn -0.509905 -0.634789 -0.580552
vn -0.629096 -0.498437 -0.596489
vn 0.104333 -0.263026 -0.959131
vn -0.509905 -0.634789 -0.580552
vn -0.643101 -0.764607 -0.042394
vn -0.829864 -0.557931 -0.006193
vn -0.629096 -0.498437 -0.596489
vn -0.643101 -0.764607 -0.042394
vn -0.547151 -0.661720 0.512594
vn -0.642640 -0.515474 0.566834
vn -0.829864 -0.557931 -0.006193
vn -0.547151 -0.661720 0.512594
vn 0.221921 -0.559463 0.798594
vn 0.113596 -0.286378 0.951359
vn -0.642640 -0.515474 0.566834
vn 0.221921 -0.559463 0.798594
vn 0.851971 -0.106731 0.512595
vn 0.821247 0.065204 0.566834
vn 0.113596 -0.286378 0.951359
vn 0.851971 -0.106731 0.512595
vn 0.992359 -0.115873 -0.042394
vn 0.986668 0.162631 -0.006193
vn 0.821247 0.065204 0.566834
vn 0.992359 -0.115873 -0.042394
vn 0.806391 -0.112657 -0.580554
vn 0.799708 0.068325 -0.596489
vn 0.986668 0.162631 -0.006193
vn -0.509905 -0.634789 -0.580552
vn 0.199914 -0.503988 -0.840256
vn 0.366416 -0.923740 -0.111548
vn -0.643101 -0.764607 -0.042394
vn -0.547151 -0.661720 0.512594
vn -0.643101 -0.764607 -0.042394
vn 0.366416 -0.923740 -0.111548
vn 0.221921 -0.559463 0.798594
vn 0.851971 -0.106731 0.512595
vn 0.221921 -0.559463 0.798594
vn 0.366416 -0.923740 -0.111548
vn 0.992359 -0.115873 -0.042394
vn 0.806391 -0.112657 -0.580554
vn 0.992359 -0.115873 -0.042394
vn 0.366416 -0.923740 -0.111548
vn 0.199914 -0.503988 -0.840256
vn 0.738158 0.378376 0.558529
vn 0.903123 0.429381 0.000131
vn 0.864487 0.502654 -0.001220
vn 0.697388 0.479397 0.532756
vn -0.039158 0.098713 0.994345
vn 0.738158 0.378376 0.558529
vn 0.697388 0.479397 0.532756
vn -0.097613 0.246082 0.964321
vn -0.796815 -0.230502 0.558528
vn -0.039158 0.098713 0.994345
vn -0.097613 0.246082 0.964321
vn -0.836379 -0.129002 0.532756
vn -0.951888 -0.306445 0.000131
vn -0.796815 -0.230502 0.558528
vn -0.836379 -0.129002 0.532756
vn -0.973985 -0.226611 -0.001220
vn -0.770959 -0.220189 -0.597612
vn -0.951888 -0.306445 0.000131
vn -0.973985 -0.226611 -0.001220
vn -0.802896 -0.135820 -0.580440
vn 0.903123 0.429381 0.000131
vn 0.712264 0.368160 -0.597611
vn 0.677683 0.451480 -0.580440
vn 0.864487 0.502654 -0.001220
vn 0.857409 0.514629 -0.002529
vn 0.855056 0.348899 -0.383600
vn -0.368710 0.929512 -0.007799
vn 0.852630 0.355507 0.382931
vn 0.857409 0.514629 -0.002529
vn -0.368710 0.929512 -0.007799
vn 0.090202 -0.227387 0.969618
vn 0.852630 0.355507 0.382931
vn 0.235399 -0.593395 0.769720
vn -0.864485 -0.325617 0.382934
vn 0.090202 -0.227387 0.969618
vn 0.235399 -0.593395 0.769720
vn -0.368710 0.929512 -0.007799
vn -0.864485 -0.325617 0.382934
vn 0.235399 -0.593395 0.769720
vn -0.861723 -0.332086 -0.383604
vn -0.368710 0.929512 -0.007799
vn 0.234159 -0.590328 -0.772453
vn 0.094170 -0.237408 -0.966835
vn -0.861723 -0.332086 -0.383604
vn 0.234159 -0.590328 -0.772453
vn 0.855056 0.348899 -0.383600
vn 0.094170 -0.237408 -0.966835
vn 0.234159 -0.590328 -0.772453
vn -0.368710 0.929512 -0.007799
vn 0.855056 0.348899 -0.383600
vn 0.234159 -0.590328 -0.772453
vn 0.852630 0.355507 0.382931
vn -0.368710 0.929512 -0.007799
vn 0.235399 -0.593395 0.769720
vn -0.861723 -0.332086 -0.383604
vn -0.977040 -0.213040 -0.002535
vn -0.368710 0.929512 -0.007799
vn -0.977040 -0.213040 -0.002535
vn -0.864485 -0.325617 0.382934
vn -0.368710 0.929512 -0.007799
vn 0.686881 0.510308 0.517475
vn 0.845282 0.534318 -0.001873
vn 0.857409 0.514629 -0.002529
vn 0.852630 0.355507 0.382931
vn -0.111496 0.281070 0.953188
vn 0.686881 0.510308 0.517475
vn 0.852630 0.355507 0.382931
vn 0.090202 -0.227387 0.969618
vn -0.849920 -0.099295 0.517472
vn -0.111496 0.281070 0.953188
vn 0.090202 -0.227387 0.969618
vn -0.864485 -0.325617 0.382934
vn -0.981706 -0.190392 -0.001873
vn -0.849920 -0.099295 0.517472
vn -0.864485 -0.325617 0.382934
vn -0.977040 -0.213040 -0.002535
vn -0.830864 -0.115483 -0.544361
vn -0.981706 -0.190392 -0.001873
vn -0.977040 -0.213040 -0.002535
vn -0.861723 -0.332086 -0.383604
vn -0.091248 0.230036 -0.968895
vn -0.830864 -0.115483 -0.544361
vn -0.861723 -0.332086 -0.383604
vn 0.094170 -0.237408 -0.966835
vn 0.684106 0.485459 -0.544361
vn -0.091248 0.230036 -0.968895
vn 0.094170 -0.237408 -0.966835
vn 0.855056 0.348899 -0.383600
vn 0.845282 0.534318 -0.001873
vn 0.684106 0.485459 -0.544361
vn 0.855056 0.348899 -0.383600
vn 0.857409 0.514629 -0.002529
vn 0.686881 0.510308 0.517475
vn 0.697388 0.479397 0.532756
vn 0.864487 0.502654 -0.001220
vn 0.845282 0.534318 -0.001873
vn -0.111496 0.281070 0.953188
vn -0.097613 0.246082 0.964321
vn 0.697388 0.479397 0.532756
vn 0.686881 0.510308 0.517475
vn -0.849920 -0.099295 0.517472
vn -0.836379 -0.129002 0.532756
vn -0.097613 0.246082 0.964321
vn -0.111496 0.281070 0.953188
vn -0.981706 -0.190392 -0.001873
vn -0.973985 -0.226611 -0.001220
vn -0.836379 -0.129002 0.532756
vn -0.849920 -0.099295 0.517472
vn -0.830864 -0.115483 -0.544361
vn -0.802896 -0.135820 -0.580440
vn -0.973985 -0.226611 -0.001220
vn -0.981706 -0.190392 -0.001873
vn 0.845282 0.534318 -0.001873
vn 0.864487 0.502654 -0.001220
vn 0.677683 0.451480 -0.580440
vn 0.684106 0.485459 -0.544361
vn 0.943023 0.332717 0.002592
vn 0.753859 0.249108 -0.607982
vn 0.712264 0.368160 -0.597611
vn 0.903123 0.429381 0.000131
vn 0.774390 0.243729 0.583881
vn 0.943023 0.332717 0.002592
vn 0.903123 0.429381 0.000131
vn 0.738158 0.378376 0.558529
vn 0.030591 -0.077124 0.996552
vn 0.774390 0.243729 0.583881
vn 0.738158 0.378376 0.558529
vn -0.039158 0.098713 0.994345
vn -0.730898 -0.353372 0.583880
vn 0.030591 -0.077124 0.996552
vn -0.039158 0.098713 0.994345
vn -0.796815 -0.230502 0.558528
vn -0.914678 -0.404175 0.002593
vn -0.730898 -0.353372 0.583880
vn -0.796815 -0.230502 0.558528
vn -0.951888 -0.306445 0.000131
vn -0.719637 -0.335381 -0.607982
vn -0.914678 -0.404175 0.002593
vn -0.951888 -0.306445 0.000131
vn -0.770959 -0.220189 -0.597612
vn 0.943023 0.332717 0.002592
vn 0.986668 0.162631 -0.006193
vn 0.799708 0.068325 -0.596489
vn 0.753859 0.249108 -0.607982
vn 0.030591 -0.077124 0.996552
vn 0.113596 -0.286378 0.951359
vn 0.821247 0.065204 0.566834
vn 0.774390 0.243729 0.583881
vn -0.730898 -0.353372 0.583880
vn -0.642640 -0.515474 0.566834
vn 0.113596 -0.286378 0.951359
vn 0.030591 -0.077124 0.996552
vn -0.914678 -0.404175 0.002593
vn -0.829864 -0.557931 -0.006193
vn -0.642640 -0.515474 0.566834
vn -0.730898 -0.353372 0.583880
vn -0.719637 -0.335381 -0.607982
vn -0.629096 -0.498437 -0.596489
vn -0.829864 -0.557931 -0.006193
vn -0.914678 -0.404175 0.002593
vn 0.022975 -0.057920 -0.998057
vn 0.104333 -0.263026 -0.959131
vn -0.629096 -0.498437 -0.596489
vn -0.719637 -0.335381 -0.607982
vn 0.753859 0.249108 -0.607982
vn 0.799708 0.068325 -0.596489
vn 0.104333 -0.263026 -0.959131
vn 0.022975 -0.057920 -0.998057
vn -0.770959 -0.220189 -0.597612
vn -0.802896 -0.135820 -0.580440
vn -0.077280 0.194822 -0.977789
vn -0.036118 0.091054 -0.995191
vn -0.091248 0.230036 -0.968895
vn -0.077280 0.194822 -0.977789
vn -0.802896 -0.135820 -0.580440
vn -0.830864 -0.115483 -0.544361
vn 0.677683 0.451480 -0.580440
vn -0.077280 0.194822 -0.977789
vn -0.091248 0.230036 -0.968895
vn 0.684106 0.485459 -0.544361
vn 0.677683 0.451480 -0.580440
vn 0.712264 0.368160 -0.597611
vn -0.036118 0.091054 -0.995191
vn -0.077280 0.194822 -0.977789
vn 0.022975 -0.057920 -0.998057
vn -0.719637 -0.335381 -0.607982
vn -0.770959 -0.220189 -0.597612
vn -0.036118 0.091054 -0.995191
vn 0.022975 -0.057920 -0.998057
vn -0.036118 0.091054 -0.995191
vn 0.712264 0.368160 -0.597611
vn 0.753859 0.249108 -0.607982
vn 0.943023 0.332717 0.002592
vn 0.774390 0.243729 0.583881
vn 0.821247 0.065204 0.566834
vn 0.986668 0.162631 -0.006193
vn 0.929527 0.368755 -0.000060
vn 0.929539 0.368723 -0.000037
vn 0.929533 0.368738 -0.000050
vn 0.929527 0.368755 -0.000060
vn 0.929540 0.368722 -0.000041
vn 0.929533 0.368738 -0.000050
vn 0.929539 0.368723 -0.000037
vn 0.929546 0.368707 -0.000025
vn 0.929546 0.368707 -0.000025
vn 0.929539 0.368723 -0.000037
vn 0.929551 0.368693 -0.000009
vn 0.802938 0.421514 -0.421446
vn 0.802938 0.421514 -0.421446
vn 0.779814 0.355546 -0.515245
vn 0.802938 0.421514 -0.421446
vn 0.815073 0.481715 -0.321880
vn 0.802938 0.421514 -0.421446
vn 0.898672 0.187998 -0.396290
vn 0.872023 0.148866 -0.466278
vn 0.858649 0.153495 -0.489041
vn 0.914948 0.204558 -0.347888
vn 0.872023 0.148866 -0.466278
vn 0.898672 0.187998 -0.396290
vn 0.932644 0.262194 -0.247850
vn 0.914948 0.204558 -0.347888
vn 0.898672 0.187998 -0.396290
vn 0.873551 0.243498 0.421447
vn 0.873551 0.243498 0.421447
vn 0.811494 0.275679 0.515246
vn 0.873551 0.243498 0.421447
vn 0.923653 0.207985 0.321882
vn 0.873551 0.243498 0.421447
vn 0.783184 0.479143 0.396289
vn 0.736957 0.489366 0.466278
vn 0.730395 0.476829 0.489037
vn 0.806385 0.478243 0.347889
vn 0.736957 0.489366 0.466278
vn 0.783184 0.479143 0.396289
vn 0.858779 0.448409 0.247847
vn 0.806385 0.478243 0.347889
vn 0.783184 0.479143 0.396289
vn -0.852451 -0.073400 -0.517629
vn -0.852451 -0.073400 -0.517629
vn -0.834381 -0.009713 -0.551103
vn -0.834381 -0.009713 -0.551103
vn -0.834381 -0.009713 -0.551103
vn -0.834381 -0.009713 -0.551103
vn -0.811718 0.054028 -0.581545
vn -0.811718 0.054028 -0.581545
vn -0.670972 -0.530899 0.517632
vn -0.670972 -0.530899 0.517632
vn -0.614162 -0.564880 0.551104
vn -0.614162 -0.564880 0.551104
vn -0.614162 -0.564880 0.551104
vn -0.614162 -0.564880 0.551104
vn -0.553972 -0.595754 0.581543
vn -0.553972 -0.595754 0.581543
s off
g fish_bait
usemtl fish_bait_lambert15SG
f 1/1/1 2/2/2 3/3/3 4/4/4
f 2/2/5 5/5/6 6/6/7 3/3/8
f 5/5/9 7/7/10 8/8/11 6/6/12
f 7/7/13 9/9/14 10/10/15 8/8/16
f 9/9/17 11/11/18 12/12/19 10/10/20
f 11/13/21 13/14/22 14/15/23 12/16/24
f 13/14/25 15/17/26 16/18/27 14/15/28
f 15/17/29 1/1/30 4/4/31 16/18/32
f 5/5/33 2/2/34 17/19/35 7/7/36
f 9/9/37 7/7/38 17/19/39 11/11/40
f 13/14/41 11/13/42 17/19/43 15/17/44
f 1/1/45 15/17/46 17/19/47 2/2/48
f 18/20/49 19/21/50 20/22/51 21/23/52
f 22/24/53 18/20/54 21/23/55 23/25/56
f 24/26/57 22/27/58 23/28/59 25/29/60
f 26/30/61 24/26/62 25/29/63 27/31/64
f 28/32/65 26/30/66 27/31/67 29/33/68
f 19/21/69 30/34/70 31/35/71 20/22/72
f 32/36/73 33/37/74 34/38/75
f 35/39/76 32/36/77 34/38/78
f 36/40/79 35/39/80 37/41/81
f 38/42/82 36/43/83 37/44/84
f 34/45/85 38/42/86 37/44/87
f 39/46/88 34/45/89 40/47/90
f 41/48/91 39/46/92 40/47/93
f 33/37/94 41/48/95 40/47/96
f 34/38/97 33/37/98 40/47/99
f 35/39/100 34/38/101 37/41/102
f 39/46/103 42/49/104 34/45/105
f 42/49/106 38/42/107 34/45/108
f 43/50/109 44/51/110 32/36/111 35/39/112
f 45/52/113 43/50/114 35/39/115 36/40/116
f 46/53/117 45/54/118 36/43/119 38/42/120
f 47/55/121 46/53/122 38/42/123 42/49/124
f 48/56/125 47/55/126 42/49/127 39/46/128
f 49/57/129 48/56/130 39/46/131 41/48/132
f 50/58/133 49/57/134 41/48/135 33/37/136
f 44/51/137 50/58/138 33/37/139 32/36/140
f 43/50/141 21/23/142 20/22/143 44/51/144
f 45/52/145 23/25/146 21/23/147 43/50/148
f 46/53/149 25/29/150 23/28/151 45/54/152
f 47/55/153 27/31/154 25/29/155 46/53/156
f 48/56/157 29/33/158 27/31/159 47/55/160
f 44/51/161 20/22/162 31/35/163 50/58/164
f 51/59/165 52/60/166 30/34/167 19/21/168
f 53/61/169 51/59/170 19/21/171 18/20/172
f 54/62/173 53/61/174 18/20/175 22/24/176
f 55/63/177 54/64/178 22/27/179 24/26/180
f 56/65/181 55/63/182 24/26/183 26/30/184
f 57/66/185 56/65/186 26/30/187 28/32/188
f 51/59/189 16/18/190 4/4/191 52/60/192
f 54/62/193 12/16/194 14/15/195 53/61/196
f 55/63/197 10/10/198 12/12/199 54/64/200
f 56/65/201 8/8/202 10/10/203 55/63/204
f 57/66/205 6/6/206 8/8/207 56/65/208
f 58/67/209 3/3/210 6/6/211 57/66/212
f 52/60/213 4/4/214 3/3/215 58/67/216
f 28/32/217 29/33/218 59/68/219 60/69/220
f 49/57/221 59/68/222 29/33/223 48/56/224
f 31/35/225 59/68/226 49/57/227 50/58/228
f 31/35/229 30/34/230 60/69/231 59/68/232
f 58/67/233 57/66/234 28/32/235 60/69/236
f 58/67/237 60/69/238 30/34/239 52/60/240
f 51/59/241 53/61/242 14/15/243 16/18/244
f 61/70/245 62/71/246 63/72/247 64/73/248
f 65/74/249 63/72/250 62/71/251 66/75/252
f 66/75/253 62/71/254 67/76/255
f 68/77/256 69/78/257 70/79/258
f 68/77/259 71/80/260 69/78/261
f 72/81/262 73/82/263 74/83/264
f 75/84/265 73/82/266 72/81/267
f 76/85/268 75/84/269 72/81/270
f 77/86/271 78/87/272 79/88/273
f 77/86/274 80/89/275 78/87/276
f 81/90/277 82/91/278 83/92/279
f 84/93/280 82/91/281 81/90/282
f 85/94/283 84/93/284 81/90/285
f 86/95/286 87/96/287 88/97/288 89/98/289
f 89/98/290 88/97/291 90/99/292 91/100/293
f 92/101/294 93/102/295 94/103/296 95/104/297
f 95/104/298 94/103/299 96/105/300 97/106/301
